<?xml version="1.0" encoding="UTF-8"?>
<svg id="Layer_1" data-name="Layer 1" xmlns="http://www.w3.org/2000/svg" viewBox="0 0 1245 300">
  <defs>
    <style>
      .cls-1 {
        fill: #f58220;
      }

      .cls-2 {
        fill: #17b193;
      }
    </style>
  </defs>
  <g>
    <path class="cls-1" d="M385.44,147.53v6.64h-28.9v21.04h24.7v6.64h-24.7v25.87h-8.19v-60.19h37.09Z"/>
    <path class="cls-1" d="M490.35,177.64c0,4.51-.71,8.65-2.14,12.41-1.43,3.77-3.44,7.01-6.05,9.72-2.6,2.72-5.73,4.82-9.39,6.32-3.65,1.5-7.69,2.25-12.12,2.25s-8.46-.75-12.1-2.25c-3.64-1.5-6.76-3.6-9.37-6.32-2.6-2.71-4.62-5.96-6.05-9.72-1.43-3.77-2.14-7.9-2.14-12.41s.71-8.64,2.14-12.41c1.43-3.77,3.44-7.01,6.05-9.74,2.6-2.73,5.73-4.85,9.37-6.36,3.64-1.51,7.67-2.27,12.1-2.27s8.46.76,12.12,2.27c3.65,1.51,6.78,3.63,9.39,6.36,2.6,2.73,4.62,5.98,6.05,9.74,1.43,3.77,2.14,7.9,2.14,12.41ZM481.99,177.64c0-3.7-.5-7.01-1.51-9.95-1.01-2.94-2.44-5.42-4.28-7.46-1.85-2.03-4.09-3.59-6.72-4.68-2.63-1.09-5.57-1.64-8.82-1.64s-6.15.55-8.78,1.64-4.88,2.65-6.74,4.68c-1.86,2.03-3.3,4.52-4.31,7.46-1.01,2.94-1.51,6.26-1.51,9.95s.5,7.01,1.51,9.93c1.01,2.93,2.44,5.4,4.31,7.43,1.86,2.03,4.11,3.58,6.74,4.66,2.63,1.08,5.56,1.62,8.78,1.62s6.19-.54,8.82-1.62c2.63-1.08,4.87-2.63,6.72-4.66,1.85-2.03,3.28-4.51,4.28-7.43,1.01-2.93,1.51-6.24,1.51-9.93Z"/>
    <path class="cls-1" d="M563.43,201.24c2.49,0,4.72-.42,6.68-1.26,1.96-.84,3.62-2.02,4.98-3.53s2.39-3.32,3.11-5.42c.71-2.1,1.07-4.41,1.07-6.93v-36.58h8.11v36.58c0,3.47-.55,6.69-1.66,9.66-1.11,2.97-2.69,5.54-4.75,7.71-2.06,2.17-4.57,3.87-7.54,5.1-2.97,1.23-6.3,1.85-10,1.85s-7.03-.62-10-1.85c-2.97-1.23-5.49-2.93-7.56-5.1-2.07-2.17-3.66-4.74-4.77-7.71-1.11-2.97-1.66-6.19-1.66-9.66v-36.58h8.11v36.54c0,2.52.36,4.83,1.07,6.93.71,2.1,1.75,3.91,3.11,5.42,1.36,1.51,3.02,2.7,5,3.55,1.97.85,4.21,1.28,6.7,1.28Z"/>
    <path class="cls-1" d="M645.73,147.8c.35.18.75.55,1.2,1.11l34.86,45.36c-.08-.73-.14-1.43-.17-2.12-.03-.69-.04-1.35-.04-2v-42.63h7.14v60.19h-4.12c-.64,0-1.18-.11-1.62-.34-.43-.22-.86-.6-1.28-1.13l-34.82-45.32c.06.7.1,1.39.13,2.06.03.67.04,1.29.04,1.85v42.88h-7.14v-60.19h4.2c.73,0,1.27.09,1.62.27Z"/>
    <path class="cls-1" d="M794.13,177.64c0,4.51-.71,8.61-2.14,12.31-1.43,3.7-3.44,6.86-6.05,9.49-2.6,2.63-5.73,4.67-9.37,6.11-3.64,1.44-7.67,2.16-12.1,2.16h-22.51v-60.19h22.51c4.42,0,8.46.72,12.1,2.16,3.64,1.44,6.76,3.49,9.37,6.13,2.6,2.65,4.62,5.82,6.05,9.51,1.43,3.7,2.14,7.8,2.14,12.31ZM785.78,177.64c0-3.7-.5-7-1.51-9.91-1.01-2.91-2.44-5.38-4.28-7.39-1.85-2.02-4.09-3.56-6.72-4.62-2.63-1.06-5.56-1.6-8.78-1.6h-14.32v47h14.32c3.22,0,6.15-.53,8.78-1.6,2.63-1.06,4.87-2.6,6.72-4.6,1.85-2,3.28-4.46,4.28-7.37s1.51-6.22,1.51-9.91Z"/>
    <path class="cls-1" d="M891.53,207.71h-6.3c-.73,0-1.32-.18-1.76-.55-.45-.36-.79-.83-1.01-1.39l-5.63-14.53h-27.01l-5.63,14.53c-.2.5-.53.95-1.01,1.34-.48.39-1.06.59-1.76.59h-6.3l24.07-60.19h8.27l24.07,60.19ZM852.09,185.37h22.47l-9.45-24.49c-.62-1.51-1.22-3.4-1.81-5.67-.31,1.15-.61,2.21-.9,3.17s-.58,1.81-.86,2.54l-9.45,24.44Z"/>
    <path class="cls-1" d="M973.14,147.53v6.85h-19.45v53.34h-8.15v-53.34h-19.53v-6.85h47.12Z"/>
    <path class="cls-1" d="M1029.92,207.71h-8.15v-60.19h8.15v60.19Z"/>
    <path class="cls-1" d="M1140.51,177.64c0,4.51-.71,8.65-2.14,12.41-1.43,3.77-3.44,7.01-6.05,9.72-2.6,2.72-5.73,4.82-9.39,6.32-3.65,1.5-7.69,2.25-12.12,2.25s-8.46-.75-12.1-2.25c-3.64-1.5-6.76-3.6-9.37-6.32-2.6-2.71-4.62-5.96-6.05-9.72-1.43-3.77-2.14-7.9-2.14-12.41s.71-8.64,2.14-12.41c1.43-3.77,3.44-7.01,6.05-9.74,2.6-2.73,5.73-4.85,9.37-6.36s7.67-2.27,12.1-2.27,8.46.76,12.12,2.27c3.65,1.51,6.78,3.63,9.39,6.36,2.6,2.73,4.62,5.98,6.05,9.74,1.43,3.77,2.14,7.9,2.14,12.41ZM1132.15,177.64c0-3.7-.5-7.01-1.51-9.95-1.01-2.94-2.44-5.42-4.28-7.46-1.85-2.03-4.09-3.59-6.72-4.68s-5.57-1.64-8.82-1.64-6.15.55-8.78,1.64-4.88,2.65-6.74,4.68c-1.86,2.03-3.3,4.52-4.3,7.46-1.01,2.94-1.51,6.26-1.51,9.95s.5,7.01,1.51,9.93,2.44,5.4,4.3,7.43c1.86,2.03,4.11,3.58,6.74,4.66,2.63,1.08,5.56,1.62,8.78,1.62s6.19-.54,8.82-1.62c2.63-1.08,4.87-2.63,6.72-4.66,1.85-2.03,3.28-4.51,4.28-7.43,1.01-2.93,1.51-6.24,1.51-9.93Z"/>
    <path class="cls-1" d="M1196.01,147.8c.35.18.75.55,1.2,1.11l34.86,45.36c-.08-.73-.14-1.43-.17-2.12-.03-.69-.04-1.35-.04-2v-42.63h7.14v60.19h-4.12c-.64,0-1.18-.11-1.62-.34-.43-.22-.86-.6-1.28-1.13l-34.82-45.32c.06.7.1,1.39.13,2.06.03.67.04,1.29.04,1.85v42.88h-7.14v-60.19h4.2c.73,0,1.27.09,1.62.27Z"/>
  </g>
  <g>
    <path class="cls-2" d="M407.08,20.33v16.25h-37.38v21.25h28.62v15.62h-28.62v21.69h37.38v16.25h-58.62V20.33h58.62Z"/>
    <path class="cls-2" d="M436.08,17.83v93.56h-19.38V17.83h19.38Z"/>
    <path class="cls-2" d="M470.95,28.83c0,1.54-.31,2.99-.94,4.34-.62,1.35-1.48,2.54-2.56,3.56-1.08,1.02-2.34,1.83-3.78,2.44-1.44.6-2.97.91-4.59.91s-3.06-.3-4.44-.91c-1.38-.6-2.59-1.42-3.66-2.44-1.06-1.02-1.9-2.21-2.5-3.56-.6-1.35-.91-2.8-.91-4.34s.3-3.06.91-4.44c.6-1.38,1.44-2.58,2.5-3.62,1.06-1.04,2.28-1.85,3.66-2.44,1.38-.58,2.85-.88,4.44-.88s3.16.29,4.59.88c1.44.58,2.7,1.4,3.78,2.44,1.08,1.04,1.94,2.25,2.56,3.62s.94,2.85.94,4.44ZM468.7,46.58v64.81h-19.38V46.58h19.38Z"/>
    <path class="cls-2" d="M481.33,111.4V46.58h12c1.21,0,2.22.27,3.03.81.81.54,1.38,1.35,1.72,2.44l1.06,3.5c1.08-1.12,2.21-2.16,3.38-3.09,1.17-.94,2.43-1.75,3.78-2.44,1.35-.69,2.81-1.23,4.38-1.62,1.56-.4,3.28-.59,5.16-.59,3.92,0,7.16,1.01,9.72,3.03,2.56,2.02,4.51,4.72,5.84,8.09,1.08-2,2.41-3.71,3.97-5.12,1.56-1.42,3.25-2.56,5.06-3.44s3.73-1.52,5.75-1.94c2.02-.42,4.03-.62,6.03-.62,3.71,0,7,.55,9.88,1.66,2.88,1.1,5.28,2.71,7.22,4.81,1.94,2.1,3.41,4.69,4.41,7.75s1.5,6.53,1.5,10.41v41.19h-19.38v-41.19c0-6.71-2.88-10.06-8.62-10.06-2.62,0-4.8.87-6.53,2.59s-2.59,4.22-2.59,7.47v41.19h-19.38v-41.19c0-3.71-.73-6.31-2.19-7.81-1.46-1.5-3.6-2.25-6.44-2.25-1.75,0-3.41.4-4.97,1.19-1.56.79-3.03,1.85-4.41,3.19v46.88h-19.38Z"/>
    <path class="cls-2" d="M608.2,28.83c0,1.54-.31,2.99-.94,4.34-.62,1.35-1.48,2.54-2.56,3.56-1.08,1.02-2.34,1.83-3.78,2.44-1.44.6-2.97.91-4.59.91s-3.06-.3-4.44-.91c-1.38-.6-2.59-1.42-3.66-2.44-1.06-1.02-1.9-2.21-2.5-3.56-.6-1.35-.91-2.8-.91-4.34s.3-3.06.91-4.44c.6-1.38,1.44-2.58,2.5-3.62,1.06-1.04,2.28-1.85,3.66-2.44,1.38-.58,2.85-.88,4.44-.88s3.16.29,4.59.88c1.44.58,2.7,1.4,3.78,2.44,1.08,1.04,1.94,2.25,2.56,3.62s.94,2.85.94,4.44ZM605.95,46.58v64.81h-19.38V46.58h19.38Z"/>
    <path class="cls-2" d="M658.2,60.77c-.5.79-1.03,1.35-1.59,1.69-.56.33-1.28.5-2.16.5-.92,0-1.83-.2-2.75-.59-.92-.4-1.91-.82-2.97-1.28-1.06-.46-2.26-.88-3.59-1.28-1.33-.4-2.86-.59-4.56-.59-2.46,0-4.34.47-5.66,1.41s-1.97,2.24-1.97,3.91c0,1.21.43,2.21,1.28,3,.85.79,1.99,1.49,3.41,2.09,1.42.6,3.02,1.18,4.81,1.72,1.79.54,3.62,1.15,5.5,1.81,1.88.67,3.71,1.45,5.5,2.34,1.79.9,3.39,2,4.81,3.31,1.42,1.31,2.55,2.91,3.41,4.78.85,1.88,1.28,4.12,1.28,6.75,0,3.21-.58,6.17-1.75,8.88-1.17,2.71-2.91,5.04-5.22,7-2.31,1.96-5.17,3.48-8.56,4.56-3.4,1.08-7.3,1.62-11.72,1.62-2.21,0-4.42-.21-6.62-.62-2.21-.42-4.34-.98-6.41-1.69-2.06-.71-3.97-1.55-5.72-2.53-1.75-.98-3.25-2.03-4.5-3.16l4.5-7.12c.54-.83,1.19-1.49,1.94-1.97.75-.48,1.73-.72,2.94-.72,1.12,0,2.13.25,3.03.75.89.5,1.86,1.04,2.91,1.62,1.04.58,2.26,1.12,3.66,1.62,1.39.5,3.16.75,5.28.75,1.5,0,2.77-.16,3.81-.47,1.04-.31,1.88-.74,2.5-1.28.62-.54,1.08-1.15,1.38-1.81.29-.67.44-1.35.44-2.06,0-1.29-.44-2.35-1.31-3.19-.88-.83-2.02-1.55-3.44-2.16-1.42-.6-3.03-1.17-4.84-1.69-1.81-.52-3.66-1.11-5.53-1.78-1.88-.67-3.72-1.47-5.53-2.41s-3.43-2.12-4.84-3.56c-1.42-1.44-2.56-3.2-3.44-5.28-.88-2.08-1.31-4.6-1.31-7.56,0-2.75.53-5.36,1.59-7.84,1.06-2.48,2.66-4.66,4.78-6.53s4.79-3.36,8-4.47c3.21-1.1,6.96-1.66,11.25-1.66,2.33,0,4.59.21,6.78.62,2.19.42,4.24,1,6.16,1.75,1.92.75,3.67,1.64,5.25,2.66,1.58,1.02,2.98,2.14,4.19,3.34l-4.38,6.81Z"/>
    <path class="cls-2" d="M670.57,111.4V17.83h19.38v34.44c2.33-2,4.86-3.61,7.59-4.84,2.73-1.23,5.99-1.84,9.78-1.84,3.54,0,6.68.62,9.41,1.84,2.73,1.23,5.03,2.94,6.91,5.12s3.29,4.79,4.25,7.81c.96,3.02,1.44,6.3,1.44,9.84v41.19h-19.38v-41.19c0-3.17-.73-5.63-2.19-7.41-1.46-1.77-3.6-2.66-6.44-2.66-2.12,0-4.12.46-6,1.38-1.88.92-3.67,2.15-5.38,3.69v46.19h-19.38Z"/>
    <path class="cls-2" d="M784.82,111.4c-1.83,0-3.22-.25-4.16-.75s-1.72-1.54-2.34-3.12l-1.38-3.56c-1.62,1.38-3.19,2.58-4.69,3.62-1.5,1.04-3.05,1.93-4.66,2.66-1.6.73-3.31,1.27-5.12,1.62-1.81.35-3.82.53-6.03.53-2.96,0-5.65-.39-8.06-1.16-2.42-.77-4.47-1.91-6.16-3.42s-2.99-3.38-3.91-5.61c-.92-2.24-1.38-4.82-1.38-7.74,0-2.3.58-4.66,1.75-7.09,1.17-2.42,3.19-4.63,6.06-6.62,2.88-1.99,6.75-3.65,11.62-4.98s11.02-2.01,18.44-2.01v-2.78c0-3.83-.78-6.59-2.34-8.29s-3.78-2.55-6.66-2.55c-2.29,0-4.17.25-5.62.75-1.46.5-2.76,1.06-3.91,1.69-1.15.62-2.26,1.19-3.34,1.69-1.08.5-2.38.75-3.88.75-1.33,0-2.47-.32-3.41-.97-.94-.65-1.68-1.45-2.22-2.41l-3.5-6.06c3.92-3.46,8.26-6.03,13.03-7.72,4.77-1.69,9.88-2.53,15.34-2.53,3.92,0,7.45.64,10.59,1.91,3.15,1.27,5.81,3.04,8,5.31,2.19,2.27,3.86,4.97,5.03,8.09,1.17,3.12,1.75,6.54,1.75,10.25v40.5h-8.88ZM762.57,99.58c2.5,0,4.69-.44,6.56-1.31s3.77-2.29,5.69-4.25v-8.88c-3.88,0-7.06.25-9.56.76s-4.48,1.13-5.94,1.89c-1.46.76-2.47,1.62-3.03,2.58s-.84,2.02-.84,3.15c0,2.23.6,3.79,1.81,4.7,1.21.9,2.98,1.36,5.31,1.36Z"/>
    <path class="cls-2" d="M818.69,20.33h17.75c1.83,0,3.36.42,4.59,1.25,1.23.83,2.03,1.94,2.41,3.31l12.5,47.5c.42,1.54.83,3.19,1.25,4.94.42,1.75.73,3.58.94,5.5.42-1.96.88-3.8,1.38-5.53.5-1.73.98-3.36,1.44-4.91l14.75-47.5c.38-1.17,1.18-2.22,2.41-3.16,1.23-.94,2.72-1.41,4.47-1.41h6.25c1.83,0,3.34.41,4.53,1.22s2.01,1.93,2.47,3.34l14.62,47.5c.46,1.46.94,3.01,1.44,4.66.5,1.65.94,3.41,1.31,5.28.33-1.83.68-3.58,1.03-5.25.35-1.67.72-3.23,1.09-4.69l12.5-47.5c.33-1.21,1.12-2.27,2.38-3.19,1.25-.92,2.75-1.38,4.5-1.38h16.62l-28.12,91.06h-19.12l-17.12-56.44c-.29-.88-.59-1.83-.91-2.88-.31-1.04-.62-2.15-.91-3.31-.29,1.17-.59,2.27-.91,3.31-.31,1.04-.62,2-.91,2.88l-17.38,56.44h-19.12l-28.12-91.06Z"/>
    <path class="cls-2" d="M994.32,111.4c-1.83,0-3.22-.25-4.16-.75s-1.72-1.54-2.34-3.12l-1.38-3.56c-1.62,1.38-3.19,2.58-4.69,3.62-1.5,1.04-3.05,1.93-4.66,2.66-1.6.73-3.31,1.27-5.12,1.62-1.81.35-3.82.53-6.03.53-2.96,0-5.65-.39-8.06-1.16-2.42-.77-4.47-1.91-6.16-3.42s-2.99-3.38-3.91-5.61c-.92-2.24-1.38-4.82-1.38-7.74,0-2.3.58-4.66,1.75-7.09,1.17-2.42,3.19-4.63,6.06-6.62,2.88-1.99,6.75-3.65,11.62-4.98s11.02-2.01,18.44-2.01v-2.78c0-3.83-.78-6.59-2.34-8.29s-3.78-2.55-6.66-2.55c-2.29,0-4.17.25-5.62.75-1.46.5-2.76,1.06-3.91,1.69-1.15.62-2.26,1.19-3.34,1.69-1.08.5-2.38.75-3.88.75-1.33,0-2.47-.32-3.41-.97-.94-.65-1.68-1.45-2.22-2.41l-3.5-6.06c3.92-3.46,8.26-6.03,13.03-7.72,4.77-1.69,9.88-2.53,15.34-2.53,3.92,0,7.45.64,10.59,1.91,3.15,1.27,5.81,3.04,8,5.31,2.19,2.27,3.86,4.97,5.03,8.09,1.17,3.12,1.75,6.54,1.75,10.25v40.5h-8.88ZM972.07,99.58c2.5,0,4.69-.44,6.56-1.31s3.77-2.29,5.69-4.25v-8.88c-3.88,0-7.06.25-9.56.76s-4.48,1.13-5.94,1.89c-1.46.76-2.47,1.62-3.03,2.58s-.84,2.02-.84,3.15c0,2.23.6,3.79,1.81,4.7,1.21.9,2.98,1.36,5.31,1.36Z"/>
    <path class="cls-2" d="M1036.69,112.4c-3.08,0-5.8-.45-8.16-1.34s-4.33-2.17-5.94-3.81c-1.6-1.65-2.82-3.63-3.66-5.97-.83-2.33-1.25-4.94-1.25-7.81v-33.5h-5.5c-1,0-1.85-.32-2.56-.97-.71-.65-1.06-1.59-1.06-2.84v-7.56l10.31-2,3.81-15.81c.5-2,1.92-3,4.25-3h10.12v18.94h15.75v13.25h-15.75v32.19c0,1.5.37,2.74,1.09,3.72.73.98,1.78,1.47,3.16,1.47.71,0,1.3-.07,1.78-.22.48-.15.9-.31,1.25-.5s.69-.35,1-.5c.31-.15.68-.22,1.09-.22.58,0,1.05.14,1.41.41.35.27.72.7,1.09,1.28l5.88,9.19c-2.5,1.88-5.31,3.28-8.44,4.22s-6.35,1.41-9.69,1.41Z"/>
    <path class="cls-2" d="M1089.82,45.58c4.92,0,9.39.77,13.44,2.31,4.04,1.54,7.51,3.75,10.41,6.62,2.89,2.88,5.14,6.37,6.75,10.47,1.6,4.1,2.41,8.72,2.41,13.84s-.8,9.82-2.41,13.97c-1.61,4.15-3.86,7.67-6.75,10.56-2.9,2.9-6.37,5.12-10.41,6.69-4.04,1.56-8.52,2.34-13.44,2.34s-9.47-.78-13.53-2.34-7.56-3.79-10.5-6.69c-2.94-2.9-5.21-6.42-6.81-10.56-1.61-4.15-2.41-8.8-2.41-13.97s.8-9.74,2.41-13.84c1.6-4.1,3.88-7.59,6.81-10.47s6.44-5.08,10.5-6.62c4.06-1.54,8.57-2.31,13.53-2.31ZM1089.82,98.02c4.46,0,7.74-1.57,9.84-4.72,2.1-3.15,3.16-7.93,3.16-14.34s-1.05-11.19-3.16-14.31c-2.11-3.12-5.39-4.69-9.84-4.69s-7.94,1.56-10.06,4.69-3.19,7.9-3.19,14.31,1.06,11.2,3.19,14.34c2.12,3.15,5.48,4.72,10.06,4.72Z"/>
    <path class="cls-2" d="M1153.19,112.4c-3.08,0-5.8-.45-8.16-1.34-2.35-.9-4.33-2.17-5.94-3.81-1.6-1.65-2.82-3.63-3.66-5.97-.83-2.33-1.25-4.94-1.25-7.81v-33.5h-5.5c-1,0-1.85-.32-2.56-.97-.71-.65-1.06-1.59-1.06-2.84v-7.56l10.31-2,3.81-15.81c.5-2,1.92-3,4.25-3h10.12v18.94h15.75v13.25h-15.75v32.19c0,1.5.36,2.74,1.09,3.72.73.98,1.78,1.47,3.16,1.47.71,0,1.3-.07,1.78-.22.48-.15.9-.31,1.25-.5.35-.19.69-.35,1-.5.31-.15.68-.22,1.09-.22.58,0,1.05.14,1.41.41.35.27.72.7,1.09,1.28l5.88,9.19c-2.5,1.88-5.31,3.28-8.44,4.22s-6.35,1.41-9.69,1.41Z"/>
    <path class="cls-2" d="M1206.31,45.58c4.92,0,9.4.77,13.44,2.31,4.04,1.54,7.51,3.75,10.41,6.62,2.9,2.88,5.15,6.37,6.75,10.47,1.6,4.1,2.41,8.72,2.41,13.84s-.8,9.82-2.41,13.97c-1.6,4.15-3.85,7.67-6.75,10.56s-6.37,5.12-10.41,6.69c-4.04,1.56-8.52,2.34-13.44,2.34s-9.47-.78-13.53-2.34-7.56-3.79-10.5-6.69c-2.94-2.9-5.21-6.42-6.81-10.56-1.6-4.15-2.41-8.8-2.41-13.97s.8-9.74,2.41-13.84c1.6-4.1,3.88-7.59,6.81-10.47s6.44-5.08,10.5-6.62c4.06-1.54,8.57-2.31,13.53-2.31ZM1206.31,98.02c4.46,0,7.74-1.57,9.84-4.72,2.1-3.15,3.16-7.93,3.16-14.34s-1.05-11.19-3.16-14.31c-2.1-3.12-5.39-4.69-9.84-4.69s-7.94,1.56-10.06,4.69-3.19,7.9-3.19,14.31,1.06,11.2,3.19,14.34c2.12,3.15,5.48,4.72,10.06,4.72Z"/>
  </g>
  <g>
    <path class="cls-2" d="M347.22,279.54l7.55-35.7h18.1l-.85,3.95h-13.65l-2.35,11.15h12.75l-.75,3.9h-12.8l-2.75,12.75h13.7l-.85,3.95h-18.1Z"/>
    <path class="cls-2" d="M383.27,280.04c-1.43,0-2.69-.34-3.77-1.03-1.08-.68-1.93-1.7-2.55-3.05-.62-1.35-.93-3.04-.93-5.08s.19-3.87.58-5.7c.38-1.83.95-3.53,1.7-5.08s1.67-2.92,2.75-4.1c1.08-1.18,2.3-2.1,3.65-2.75,1.35-.65,2.84-.97,4.47-.97,1.2,0,2.23.22,3.1.65.87.43,1.6.99,2.2,1.67.6.68,1.08,1.44,1.45,2.27h.25c.1-.77.2-1.5.3-2.2.1-.7.22-1.41.35-2.12.13-.72.28-1.48.45-2.28l1.85-8.75h4.35l-8.05,38h-3.6l.55-4.95h-.2c-.8,1-1.65,1.92-2.55,2.75-.9.83-1.87,1.49-2.9,1.98-1.03.48-2.18.72-3.45.72ZM384.77,276.39c.73,0,1.48-.18,2.25-.55.77-.37,1.51-.89,2.23-1.58.72-.68,1.39-1.49,2.02-2.42.63-.93,1.19-1.96,1.68-3.08.48-1.12.86-2.3,1.12-3.55.27-1.25.4-2.54.4-3.88,0-1.6-.39-2.9-1.18-3.9s-2.06-1.5-3.82-1.5c-1.07,0-2.06.27-2.98.82-.92.55-1.74,1.32-2.48,2.3-.73.98-1.36,2.12-1.87,3.4-.52,1.28-.92,2.65-1.2,4.1-.28,1.45-.43,2.92-.43,4.42,0,1.8.36,3.15,1.08,4.05.72.9,1.77,1.35,3.17,1.35Z"/>
    <path class="cls-2" d="M414.77,280.04c-1.33,0-2.51-.25-3.53-.75-1.02-.5-1.8-1.25-2.35-2.25-.55-1-.83-2.22-.83-3.65,0-.77.06-1.49.17-2.17.12-.68.24-1.39.38-2.12l3.5-16.35h4.45l-3.6,16.85c-.13.73-.24,1.37-.32,1.9-.08.53-.12,1.02-.12,1.45,0,1.07.27,1.91.82,2.52.55.62,1.44.92,2.68.92,1.13,0,2.36-.4,3.67-1.2,1.32-.8,2.54-2.08,3.67-3.85,1.13-1.77,2.02-4.12,2.65-7.05l2.45-11.55h4.35l-5.7,26.8h-3.6l.55-4.95h-.25c-.63.8-1.38,1.62-2.23,2.48-.85.85-1.83,1.56-2.95,2.12-1.12.57-2.41.85-3.87.85Z"/>
    <path class="cls-2" d="M449.37,280.04c-1.97,0-3.7-.37-5.2-1.1-1.5-.73-2.67-1.84-3.5-3.33-.83-1.48-1.25-3.34-1.25-5.58,0-1.93.21-3.78.62-5.53.42-1.75,1.02-3.38,1.83-4.88.8-1.5,1.77-2.8,2.9-3.9,1.13-1.1,2.42-1.96,3.88-2.58,1.45-.62,3.04-.92,4.77-.92,1.17,0,2.33.12,3.5.35,1.17.23,2.22.55,3.15.95l-1.25,3.65c-.67-.3-1.46-.58-2.38-.85-.92-.27-1.91-.4-2.97-.4-1.43,0-2.73.38-3.9,1.12-1.17.75-2.17,1.77-3.02,3.05s-1.5,2.77-1.95,4.47c-.45,1.7-.68,3.5-.68,5.4,0,1.33.23,2.48.7,3.45.47.97,1.14,1.7,2.02,2.2.88.5,1.94.75,3.17.75,1.17,0,2.28-.17,3.33-.5,1.05-.33,2.09-.72,3.12-1.15v3.7c-.93.47-1.98.85-3.12,1.15s-2.41.45-3.77.45Z"/>
    <path class="cls-2" d="M472.07,280.04c-1.43,0-2.69-.34-3.77-1.03-1.08-.68-1.93-1.71-2.55-3.07-.62-1.37-.93-3.05-.93-5.05s.21-3.92.62-5.77c.42-1.85,1.01-3.56,1.77-5.12.77-1.57,1.69-2.92,2.78-4.08,1.08-1.15,2.3-2.05,3.65-2.7,1.35-.65,2.79-.97,4.32-.97,1.17,0,2.19.22,3.08.65.88.43,1.62,1,2.23,1.7s1.08,1.47,1.45,2.3h.25l1.6-4.15h3.35l-5.7,26.8h-3.5l.65-4.95h-.2c-.77.97-1.62,1.87-2.55,2.7-.93.83-1.94,1.5-3.03,2-1.08.5-2.26.75-3.52.75ZM473.52,276.39c1.23,0,2.44-.45,3.62-1.35,1.18-.9,2.26-2.12,3.23-3.65.97-1.53,1.7-3.25,2.2-5.15.27-.97.44-1.86.52-2.67.08-.82.12-1.58.12-2.28,0-1.57-.43-2.85-1.3-3.85-.87-1-2.03-1.5-3.5-1.5-1.03,0-2.01.27-2.92.8-.92.53-1.76,1.27-2.53,2.22-.77.95-1.42,2.06-1.95,3.33-.53,1.27-.95,2.64-1.25,4.12-.3,1.48-.45,3.01-.45,4.58,0,1.8.37,3.15,1.1,4.05.73.9,1.77,1.35,3.1,1.35Z"/>
    <path class="cls-2" d="M502.82,280.04c-1.8,0-3.32-.43-4.55-1.3-1.23-.87-1.85-2.38-1.85-4.55,0-.5.04-1.06.12-1.68.08-.62.19-1.24.32-1.88l3.05-14.55h-4.15l.4-2,4.5-1.9,3.1-5.55h2.6l-1.35,6.1h6.75l-.7,3.35h-6.7l-3.1,14.6c-.1.43-.2.92-.3,1.47s-.15,1.06-.15,1.53c0,.77.21,1.42.62,1.95.42.53,1.09.8,2.02.8.6,0,1.18-.06,1.75-.18.57-.12,1.17-.27,1.8-.47v3.35c-.4.2-1.02.4-1.85.6-.83.2-1.62.3-2.35.3Z"/>
    <path class="cls-2" d="M525.02,280.04c-2.07,0-3.83-.41-5.27-1.22-1.45-.82-2.55-1.98-3.3-3.5s-1.12-3.31-1.12-5.38.31-4.24.93-6.33c.62-2.08,1.51-3.98,2.67-5.7,1.17-1.72,2.58-3.09,4.23-4.12s3.51-1.55,5.57-1.55c2.53,0,4.44.55,5.73,1.65,1.28,1.1,1.93,2.63,1.93,4.6,0,1.3-.3,2.52-.9,3.67-.6,1.15-1.53,2.16-2.8,3.03-1.27.87-2.88,1.54-4.85,2.02-1.97.48-4.33.73-7.1.73h-.85c-.03.3-.06.62-.08.95-.02.33-.02.63-.02.9,0,2.03.5,3.64,1.5,4.83,1,1.18,2.52,1.77,4.55,1.77,1.27,0,2.47-.18,3.6-.55,1.13-.37,2.37-.87,3.7-1.5v3.75c-1.27.57-2.51,1.03-3.73,1.4-1.22.37-2.68.55-4.38.55ZM520.87,264.39c2,0,3.85-.17,5.55-.52,1.7-.35,3.07-.93,4.1-1.75,1.03-.82,1.55-1.91,1.55-3.28,0-.87-.29-1.58-.88-2.12-.58-.55-1.49-.83-2.73-.83-1.07,0-2.12.33-3.15,1-1.03.67-1.97,1.63-2.8,2.9-.83,1.27-1.5,2.8-2,4.6h.35Z"/>
    <path class="cls-2" d="M566.02,280.04c-1.43,0-2.69-.34-3.78-1.03-1.08-.68-1.93-1.71-2.55-3.07-.62-1.37-.92-3.05-.92-5.05s.21-3.92.62-5.77c.42-1.85,1.01-3.56,1.77-5.12.77-1.57,1.69-2.92,2.78-4.08,1.08-1.15,2.3-2.05,3.65-2.7,1.35-.65,2.79-.97,4.33-.97,1.17,0,2.19.22,3.08.65.88.43,1.62,1,2.22,1.7.6.7,1.08,1.47,1.45,2.3h.25l1.6-4.15h3.35l-5.7,26.8h-3.5l.65-4.95h-.2c-.77.97-1.62,1.87-2.55,2.7-.93.83-1.94,1.5-3.03,2s-2.26.75-3.52.75ZM567.47,276.39c1.23,0,2.44-.45,3.62-1.35s2.26-2.12,3.23-3.65c.97-1.53,1.7-3.25,2.2-5.15.27-.97.44-1.86.52-2.67s.12-1.58.12-2.28c0-1.57-.43-2.85-1.3-3.85-.87-1-2.03-1.5-3.5-1.5-1.03,0-2.01.27-2.92.8-.92.53-1.76,1.27-2.53,2.22s-1.42,2.06-1.95,3.33c-.53,1.27-.95,2.64-1.25,4.12-.3,1.48-.45,3.01-.45,4.58,0,1.8.37,3.15,1.1,4.05.73.9,1.77,1.35,3.1,1.35Z"/>
    <path class="cls-2" d="M619.57,280.04c-2.63,0-4.9-.55-6.8-1.65-1.9-1.1-3.36-2.67-4.38-4.72s-1.52-4.47-1.52-7.28c0-2.13.25-4.3.75-6.5.5-2.2,1.26-4.28,2.27-6.25,1.02-1.97,2.3-3.72,3.85-5.27,1.55-1.55,3.36-2.78,5.42-3.67,2.07-.9,4.4-1.35,7-1.35,1.7,0,3.27.17,4.7.5,1.43.33,2.77.83,4,1.5l-1.8,3.7c-.9-.47-1.91-.88-3.03-1.22-1.12-.35-2.41-.53-3.88-.53-2,0-3.78.37-5.35,1.1-1.57.73-2.92,1.73-4.07,3-1.15,1.27-2.11,2.71-2.88,4.33-.77,1.62-1.33,3.33-1.7,5.15-.37,1.82-.55,3.62-.55,5.42,0,3.03.77,5.42,2.32,7.17,1.55,1.75,3.69,2.62,6.43,2.62,1.37,0,2.71-.13,4.02-.4,1.32-.27,2.61-.62,3.88-1.05v3.9c-1.3.47-2.61.83-3.92,1.1-1.32.27-2.91.4-4.78.4Z"/>
    <path class="cls-2" d="M636.76,279.54l8.05-38h4.4l-2.15,9.85c-.13.67-.29,1.36-.47,2.08-.18.72-.37,1.43-.55,2.15s-.38,1.42-.57,2.12h.25c.63-.83,1.38-1.67,2.25-2.5.87-.83,1.86-1.53,2.97-2.1,1.12-.57,2.39-.85,3.82-.85s2.6.26,3.6.78,1.77,1.27,2.33,2.27c.55,1,.82,2.27.82,3.8,0,.63-.05,1.28-.15,1.95-.1.67-.23,1.38-.4,2.15l-3.5,16.3h-4.4l3.55-16.8c.17-.77.28-1.41.35-1.92.07-.52.1-.98.1-1.38,0-1.1-.28-1.96-.83-2.58-.55-.62-1.44-.92-2.67-.92-1.13,0-2.36.39-3.68,1.17s-2.53,2.06-3.65,3.83c-1.12,1.77-1.99,4.12-2.62,7.05l-2.45,11.55h-4.4Z"/>
    <path class="cls-2" d="M668.46,279.54l5.7-26.8h4.4l-5.7,26.8h-4.4ZM677.71,248.29c-.7,0-1.27-.21-1.73-.62-.45-.42-.67-.99-.67-1.72,0-.57.12-1.09.35-1.58.23-.48.57-.88,1-1.17.43-.3.97-.45,1.6-.45.77,0,1.34.2,1.72.6.38.4.58.95.58,1.65,0,1.03-.3,1.84-.9,2.42-.6.58-1.25.88-1.95.88Z"/>
    <path class="cls-2" d="M684.07,279.54l8.1-38h4.4l-8.1,38h-4.4Z"/>
    <path class="cls-2" d="M708.01,280.04c-1.43,0-2.69-.34-3.78-1.03-1.08-.68-1.93-1.7-2.55-3.05-.62-1.35-.92-3.04-.92-5.08s.19-3.87.57-5.7.95-3.53,1.7-5.08,1.67-2.92,2.75-4.1c1.08-1.18,2.3-2.1,3.65-2.75,1.35-.65,2.84-.97,4.47-.97,1.2,0,2.23.22,3.1.65.87.43,1.6.99,2.2,1.67.6.68,1.08,1.44,1.45,2.27h.25c.1-.77.2-1.5.3-2.2.1-.7.22-1.41.35-2.12.13-.72.28-1.48.45-2.28l1.85-8.75h4.35l-8.05,38h-3.6l.55-4.95h-.2c-.8,1-1.65,1.92-2.55,2.75-.9.83-1.87,1.49-2.9,1.98-1.03.48-2.18.72-3.45.72ZM709.51,276.39c.73,0,1.48-.18,2.25-.55.77-.37,1.51-.89,2.22-1.58.72-.68,1.39-1.49,2.03-2.42.63-.93,1.19-1.96,1.67-3.08.48-1.12.86-2.3,1.12-3.55.27-1.25.4-2.54.4-3.88,0-1.6-.39-2.9-1.17-3.9s-2.06-1.5-3.83-1.5c-1.07,0-2.06.27-2.97.82-.92.55-1.74,1.32-2.47,2.3-.73.98-1.36,2.12-1.88,3.4-.52,1.28-.92,2.65-1.2,4.1-.28,1.45-.42,2.92-.42,4.42,0,1.8.36,3.15,1.07,4.05s1.78,1.35,3.18,1.35Z"/>
    <path class="cls-2" d="M727.91,285.99c.6-1.33,1.2-2.73,1.8-4.17.6-1.45,1.18-2.88,1.72-4.28.55-1.4,1.03-2.67,1.43-3.8h4.8l.2.55c-.53,1.17-1.17,2.42-1.9,3.78-.73,1.35-1.5,2.7-2.3,4.05-.8,1.35-1.6,2.64-2.4,3.88h-3.35Z"/>
    <path class="cls-2" d="M768.96,279.54l6.7-31.75h-9.8l.85-3.95h24.1l-.8,3.95h-9.8l-6.75,31.75h-4.5Z"/>
    <path class="cls-2" d="M788.06,279.54l5.7-26.8h3.6l-.55,4.95h.25c.7-.93,1.43-1.81,2.2-2.62.77-.82,1.63-1.49,2.6-2.03s2.08-.8,3.35-.8c.47,0,.96.02,1.47.08.52.05.99.14,1.43.27l-.95,3.95c-.43-.1-.86-.17-1.27-.22-.42-.05-.84-.08-1.28-.08-1.23,0-2.38.33-3.43.97-1.05.65-1.98,1.51-2.8,2.58-.82,1.07-1.51,2.25-2.08,3.55s-.98,2.62-1.25,3.95l-2.6,12.25h-4.4Z"/>
    <path class="cls-2" d="M817.96,280.04c-1.43,0-2.69-.34-3.78-1.03-1.08-.68-1.93-1.71-2.55-3.07-.62-1.37-.93-3.05-.93-5.05s.21-3.92.62-5.77c.42-1.85,1.01-3.56,1.78-5.12.77-1.57,1.69-2.92,2.78-4.08,1.08-1.15,2.3-2.05,3.65-2.7,1.35-.65,2.79-.97,4.33-.97,1.17,0,2.19.22,3.07.65.88.43,1.62,1,2.23,1.7s1.08,1.47,1.45,2.3h.25l1.6-4.15h3.35l-5.7,26.8h-3.5l.65-4.95h-.2c-.77.97-1.62,1.87-2.55,2.7-.93.83-1.94,1.5-3.03,2-1.08.5-2.26.75-3.53.75ZM819.41,276.39c1.23,0,2.44-.45,3.62-1.35,1.18-.9,2.26-2.12,3.23-3.65.97-1.53,1.7-3.25,2.2-5.15.27-.97.44-1.86.53-2.67.08-.82.12-1.58.12-2.28,0-1.57-.43-2.85-1.3-3.85s-2.03-1.5-3.5-1.5c-1.03,0-2.01.27-2.92.8-.92.53-1.76,1.27-2.53,2.22-.77.95-1.42,2.06-1.95,3.33-.53,1.27-.95,2.64-1.25,4.12-.3,1.48-.45,3.01-.45,4.58,0,1.8.37,3.15,1.1,4.05.73.9,1.77,1.35,3.1,1.35Z"/>
    <path class="cls-2" d="M840.66,279.54l5.75-26.95h3.9l-.55,4.95h.05c.63-.83,1.38-1.67,2.23-2.5.85-.83,1.84-1.53,2.97-2.1,1.13-.57,2.42-.85,3.85-.85s2.67.27,3.7.8c1.03.53,1.83,1.3,2.38,2.3.55,1,.83,2.22.83,3.65,0,.77-.06,1.55-.17,2.35-.12.8-.24,1.5-.38,2.1l-3.55,16.25h-4.7l3.6-16.85c.17-.77.29-1.41.38-1.93.08-.52.12-1.01.12-1.47,0-1.07-.28-1.87-.85-2.4-.57-.53-1.42-.8-2.55-.8s-2.29.38-3.58,1.15-2.48,2.02-3.6,3.75c-1.12,1.73-1.99,4.07-2.62,7l-2.5,11.55h-4.7Z"/>
    <path class="cls-2" d="M878.91,280.04c-1.63,0-3.06-.16-4.27-.47-1.22-.32-2.29-.73-3.23-1.23v-4.05c.87.53,1.96,1.03,3.28,1.47,1.32.45,2.68.68,4.08.68s2.44-.18,3.33-.53c.88-.35,1.56-.84,2.03-1.47.47-.63.7-1.37.7-2.2,0-.67-.13-1.24-.4-1.73-.27-.48-.72-.97-1.38-1.45-.65-.48-1.56-1.04-2.72-1.68-1.27-.73-2.32-1.46-3.17-2.17-.85-.72-1.49-1.51-1.92-2.38-.43-.87-.65-1.87-.65-3,0-1.53.38-2.87,1.12-4,.75-1.13,1.81-2.02,3.18-2.65,1.37-.63,2.97-.95,4.8-.95,1.63,0,3.14.19,4.53.58s2.58.81,3.58,1.27l-1.4,3.5c-.87-.4-1.83-.77-2.9-1.12-1.07-.35-2.33-.52-3.8-.52s-2.57.34-3.42,1.02c-.85.68-1.28,1.56-1.28,2.62,0,.57.12,1.08.35,1.55.23.47.68.94,1.33,1.43s1.56,1.06,2.73,1.72c1.13.67,2.15,1.33,3.05,2,.9.67,1.61,1.43,2.12,2.3.52.87.78,1.93.78,3.2,0,1.8-.42,3.32-1.28,4.55-.85,1.23-2.06,2.16-3.62,2.78s-3.4.92-5.5.92Z"/>
    <path class="cls-2" d="M893.11,291.54c-.63,0-1.22-.05-1.75-.15-.53-.1-1.02-.22-1.45-.35v-3.7c.47.13.92.26,1.35.38.43.12.92.17,1.45.17,1.2,0,2.13-.49,2.8-1.47.67-.98,1.2-2.39,1.6-4.22l5.5-26.1h-4.65l.35-1.85,5-1.65.55-2.4c.4-1.7.87-3.12,1.4-4.28s1.16-2.07,1.88-2.75c.72-.68,1.56-1.17,2.53-1.45.97-.28,2.07-.42,3.3-.42.83,0,1.69.09,2.57.28s1.59.41,2.12.67l-1.15,3.35c-.47-.17-.97-.33-1.52-.47-.55-.15-1.16-.23-1.83-.23-1.3,0-2.32.37-3.07,1.1s-1.36,2.13-1.83,4.2l-.6,2.55h5.75l-.65,3.35h-5.75l-5.6,26.6c-.4,1.83-.94,3.42-1.62,4.75-.68,1.33-1.57,2.35-2.65,3.05-1.08.7-2.42,1.05-4.02,1.05Z"/>
    <path class="cls-2" d="M926.56,279.94c-2.07,0-3.85-.42-5.35-1.25s-2.65-2.03-3.45-3.58c-.8-1.55-1.2-3.38-1.2-5.48,0-1.63.18-3.27.55-4.92.37-1.65.91-3.21,1.62-4.67s1.61-2.78,2.68-3.92c1.07-1.15,2.32-2.06,3.75-2.73,1.43-.67,3.03-1,4.8-1,2.1,0,3.89.42,5.38,1.25,1.48.83,2.62,2.03,3.43,3.58.8,1.55,1.2,3.39,1.2,5.53,0,1.63-.18,3.27-.55,4.9-.37,1.63-.91,3.19-1.62,4.68-.72,1.48-1.61,2.79-2.68,3.92-1.07,1.13-2.32,2.03-3.75,2.7-1.43.67-3.03,1-4.8,1ZM926.81,276.29c.97,0,1.88-.2,2.73-.6.85-.4,1.64-.99,2.38-1.78.73-.78,1.36-1.75,1.88-2.9.52-1.15.92-2.46,1.22-3.92.3-1.47.45-3.08.45-4.85,0-1-.17-1.98-.52-2.92-.35-.95-.92-1.73-1.73-2.35-.8-.62-1.87-.92-3.2-.92-1.1,0-2.12.23-3.05.7s-1.77,1.12-2.5,1.97c-.73.85-1.36,1.85-1.88,3-.52,1.15-.91,2.41-1.17,3.78-.27,1.37-.4,2.8-.4,4.3,0,2.07.51,3.67,1.53,4.8,1.02,1.13,2.44,1.7,4.27,1.7Z"/>
    <path class="cls-2" d="M946.46,279.54l5.7-26.8h3.6l-.55,4.95h.25c.7-.93,1.43-1.81,2.2-2.62s1.63-1.49,2.6-2.03c.97-.53,2.08-.8,3.35-.8.47,0,.96.02,1.47.08.52.05.99.14,1.43.27l-.95,3.95c-.43-.1-.86-.17-1.27-.22-.42-.05-.84-.08-1.27-.08-1.23,0-2.38.33-3.43.97-1.05.65-1.98,1.51-2.8,2.58-.82,1.07-1.51,2.25-2.08,3.55s-.98,2.62-1.25,3.95l-2.6,12.25h-4.4Z"/>
    <path class="cls-2" d="M969.11,279.54l5.7-26.8h3.6l-.55,4.95h.25c.6-.83,1.31-1.67,2.12-2.5.82-.83,1.77-1.53,2.85-2.1,1.08-.57,2.31-.85,3.67-.85,1.83,0,3.24.52,4.23,1.58.98,1.05,1.57,2.51,1.77,4.38h.2c.67-1,1.46-1.95,2.38-2.85.92-.9,1.94-1.64,3.08-2.22,1.13-.58,2.38-.88,3.75-.88,2.07,0,3.67.57,4.8,1.7,1.13,1.13,1.7,2.77,1.7,4.9,0,.8-.05,1.54-.15,2.23-.1.68-.23,1.41-.4,2.17l-3.45,16.3h-4.45l3.6-16.8c.17-.77.28-1.42.35-1.95.07-.53.1-1.05.1-1.55,0-1-.27-1.8-.83-2.4-.55-.6-1.41-.9-2.57-.9-.8,0-1.65.22-2.55.67-.9.45-1.78,1.14-2.65,2.08-.87.93-1.65,2.12-2.35,3.57-.7,1.45-1.27,3.18-1.7,5.18l-2.55,12.1h-4.4l3.55-16.8c.17-.77.28-1.41.35-1.92s.1-.98.1-1.38c0-1.1-.25-1.96-.75-2.58-.5-.62-1.33-.92-2.5-.92-.8,0-1.66.22-2.58.65-.92.43-1.81,1.12-2.67,2.08-.87.95-1.67,2.19-2.4,3.72-.73,1.53-1.33,3.4-1.8,5.6l-2.45,11.55h-4.4Z"/>
    <path class="cls-2" d="M1039.61,280.04c-1.43,0-2.69-.34-3.78-1.03-1.08-.68-1.93-1.71-2.55-3.07-.62-1.37-.92-3.05-.92-5.05s.21-3.92.62-5.77c.42-1.85,1.01-3.56,1.77-5.12.77-1.57,1.69-2.92,2.78-4.08,1.08-1.15,2.3-2.05,3.65-2.7,1.35-.65,2.79-.97,4.33-.97,1.17,0,2.19.22,3.08.65.88.43,1.62,1,2.22,1.7.6.7,1.08,1.47,1.45,2.3h.25l1.6-4.15h3.35l-5.7,26.8h-3.5l.65-4.95h-.2c-.77.97-1.62,1.87-2.55,2.7-.93.83-1.94,1.5-3.03,2s-2.26.75-3.52.75ZM1041.06,276.39c1.23,0,2.44-.45,3.62-1.35s2.26-2.12,3.23-3.65c.97-1.53,1.7-3.25,2.2-5.15.27-.97.44-1.86.52-2.67s.12-1.58.12-2.28c0-1.57-.43-2.85-1.3-3.85-.87-1-2.03-1.5-3.5-1.5-1.03,0-2.01.27-2.92.8-.92.53-1.76,1.27-2.53,2.22s-1.42,2.06-1.95,3.33c-.53,1.27-.95,2.64-1.25,4.12-.3,1.48-.45,3.01-.45,4.58,0,1.8.37,3.15,1.1,4.05.73.9,1.77,1.35,3.1,1.35Z"/>
    <path class="cls-2" d="M1078.86,279.54l7.55-35.7h4.75l10.95,29.5h.15c.1-.8.24-1.76.43-2.88.18-1.12.39-2.28.62-3.5.23-1.22.47-2.38.7-3.47l4.2-19.65h4.25l-7.55,35.7h-4.75l-11.05-29.6h-.15c-.07.53-.16,1.19-.28,1.97-.12.78-.26,1.63-.43,2.55-.17.92-.34,1.87-.52,2.85-.18.98-.38,1.92-.58,2.82l-4.1,19.4h-4.2Z"/>
    <path class="cls-2" d="M1124.61,280.04c-1.43,0-2.69-.34-3.78-1.03-1.08-.68-1.93-1.71-2.55-3.07-.62-1.37-.93-3.05-.93-5.05s.21-3.92.62-5.77c.42-1.85,1.01-3.56,1.78-5.12.77-1.57,1.69-2.92,2.78-4.08,1.08-1.15,2.3-2.05,3.65-2.7,1.35-.65,2.79-.97,4.33-.97,1.17,0,2.19.22,3.07.65.88.43,1.62,1,2.23,1.7s1.08,1.47,1.45,2.3h.25l1.6-4.15h3.35l-5.7,26.8h-3.5l.65-4.95h-.2c-.77.97-1.62,1.87-2.55,2.7-.93.83-1.94,1.5-3.03,2-1.08.5-2.26.75-3.53.75ZM1126.06,276.39c1.23,0,2.44-.45,3.62-1.35,1.18-.9,2.26-2.12,3.23-3.65.97-1.53,1.7-3.25,2.2-5.15.27-.97.44-1.86.53-2.67.08-.82.12-1.58.12-2.28,0-1.57-.43-2.85-1.3-3.85s-2.03-1.5-3.5-1.5c-1.03,0-2.01.27-2.92.8-.92.53-1.76,1.27-2.53,2.22-.77.95-1.42,2.06-1.95,3.33-.53,1.27-.95,2.64-1.25,4.12-.3,1.48-.45,3.01-.45,4.58,0,1.8.37,3.15,1.1,4.05.73.9,1.77,1.35,3.1,1.35Z"/>
    <path class="cls-2" d="M1155.36,280.04c-1.8,0-3.32-.43-4.55-1.3-1.23-.87-1.85-2.38-1.85-4.55,0-.5.04-1.06.12-1.68.08-.62.19-1.24.32-1.88l3.05-14.55h-4.15l.4-2,4.5-1.9,3.1-5.55h2.6l-1.35,6.1h6.75l-.7,3.35h-6.7l-3.1,14.6c-.1.43-.2.92-.3,1.47s-.15,1.06-.15,1.53c0,.77.21,1.42.62,1.95.42.53,1.09.8,2.02.8.6,0,1.18-.06,1.75-.18.57-.12,1.17-.27,1.8-.47v3.35c-.4.2-1.02.4-1.85.6-.83.2-1.62.3-2.35.3Z"/>
    <path class="cls-2" d="M1166.86,279.54l5.7-26.8h4.4l-5.7,26.8h-4.4ZM1176.11,248.29c-.7,0-1.27-.21-1.73-.62-.45-.42-.67-.99-.67-1.72,0-.57.12-1.09.35-1.58.23-.48.57-.88,1-1.17.43-.3.97-.45,1.6-.45.77,0,1.34.2,1.72.6.38.4.58.95.58,1.65,0,1.03-.3,1.84-.9,2.42-.6.58-1.25.88-1.95.88Z"/>
    <path class="cls-2" d="M1193.51,279.94c-2.07,0-3.85-.42-5.35-1.25s-2.65-2.03-3.45-3.58-1.2-3.38-1.2-5.48c0-1.63.18-3.27.55-4.92.37-1.65.91-3.21,1.62-4.67.72-1.47,1.61-2.78,2.67-3.92,1.07-1.15,2.32-2.06,3.75-2.73,1.43-.67,3.03-1,4.8-1,2.1,0,3.89.42,5.38,1.25,1.48.83,2.62,2.03,3.42,3.58s1.2,3.39,1.2,5.53c0,1.63-.18,3.27-.55,4.9-.37,1.63-.91,3.19-1.62,4.68s-1.61,2.79-2.67,3.92c-1.07,1.13-2.32,2.03-3.75,2.7-1.43.67-3.03,1-4.8,1ZM1193.76,276.29c.97,0,1.88-.2,2.72-.6.85-.4,1.64-.99,2.38-1.78.73-.78,1.36-1.75,1.88-2.9.52-1.15.93-2.46,1.23-3.92.3-1.47.45-3.08.45-4.85,0-1-.18-1.98-.53-2.92-.35-.95-.92-1.73-1.72-2.35-.8-.62-1.87-.92-3.2-.92-1.1,0-2.12.23-3.05.7-.93.47-1.77,1.12-2.5,1.97-.73.85-1.36,1.85-1.88,3-.52,1.15-.91,2.41-1.18,3.78-.27,1.37-.4,2.8-.4,4.3,0,2.07.51,3.67,1.52,4.8,1.02,1.13,2.44,1.7,4.28,1.7Z"/>
    <path class="cls-2" d="M1213.21,279.54l5.75-26.95h3.9l-.55,4.95h.05c.63-.83,1.38-1.67,2.22-2.5.85-.83,1.84-1.53,2.97-2.1s2.42-.85,3.85-.85,2.67.27,3.7.8c1.03.53,1.82,1.3,2.38,2.3.55,1,.82,2.22.82,3.65,0,.77-.06,1.55-.17,2.35-.12.8-.24,1.5-.38,2.1l-3.55,16.25h-4.7l3.6-16.85c.17-.77.29-1.41.38-1.93.08-.52.12-1.01.12-1.47,0-1.07-.28-1.87-.85-2.4-.57-.53-1.42-.8-2.55-.8s-2.29.38-3.57,1.15c-1.28.77-2.48,2.02-3.6,3.75-1.12,1.73-1.99,4.07-2.62,7l-2.5,11.55h-4.7Z"/>
  </g>
  <path class="cls-2" d="M150.69,5C70.6,5,5.69,69.92,5.69,150s64.92,145,145,145,145-64.92,145-145S230.77,5,150.69,5ZM150.69,287.5c-75.94,0-137.5-61.56-137.5-137.5S74.75,12.5,150.69,12.5s137.5,61.56,137.5,137.5-61.56,137.5-137.5,137.5Z"/>
  <g>
    <path class="cls-2" d="M214.13,232.04c-.3-2.07-1.43-3.53-3.44-4.61-3.32-1.76-5.42-4.57-6.36-8.38-1.45-5.91-.31-11.49,1.58-17.02.63-1.84,1.78-3.4,4.11-3.23,2.09.15,2.85-1.23,3.19-2.87.43-2.12.78-4.28.94-6.44.3-3.9.46-7.81.62-11.71.03-.82.05-1.65.05-2.96-5.7.69-11.56,1.25-16.99,2.07-11.61,1.75-22.5,5.4-32.31,12.07-3.57,2.43-7.46,4.46-11.35,6.36-3.17,1.55-6.52,1.19-9.65-.43-1.41-.73-2.82-1.53-4.08-2.49-10.62-8.06-22.61-12.91-35.69-15.13-5.82-.99-12.03-1.62-18.07-2.44q0,1.33.01,1.78c-.01,4.5.28,9.03-.1,13.5-.37,4.39.72,7.46,4.97,9.37,3.45,1.55,5.16,4.67,5.41,8.37.22,3.32.25,6.69-.03,10.01-.35,4.08-1.98,7.55-6.02,9.4-.92.42-1.94.84-2.61,1.55-.73.77-1.53,1.86-1.57,2.84-.15,3.77.03,7.55.02,11.33,0,1.8.88,2.54,2.6,2.81,5.3.82,10.59,1.7,15.87,2.64,4.99.89,10.04,1.59,14.93,2.88,7.7,2.03,14.33,6.16,20.41,11.26,6.84,5.73,11.38,6.04,18.91,1.31,3.32-2.09,6.5-4.38,9.74-6.59,6.94-4.74,14.55-7.8,22.89-8.92,5.31-.71,10.65-1.31,15.99-1.78,4.49-.4,6.36-1.79,6.72-6.36.21-2.69-.3-5.46-.68-8.17Z"/>
    <path class="cls-2" d="M130.91,162.55c-5.42,3.62-10.46,6.99-15.7,10.48-.62.4-1.11.76-1.5,1.1,9.62,2.67,18.57,6.95,26.71,13.13,1.26.96,2.67,1.76,4.08,2.49,3.13,1.62,6.48,1.98,9.65.43,3.9-1.9,7.78-3.93,11.35-6.36,2.2-1.5,4.44-2.85,8.33-4.82,3.88-1.98,6.63-2.94,9.01-3.74,2.39-.8,4.57-1.34,4.57-1.34,0,0-13-7.17-17.84-10.86,11.62-6.59,19.46-19.06,19.46-33.37,0-13.51-6.99-25.37-17.54-32.21-.02-.02-.05-.04-.07-.05-.05-.03-.1-.06-.14-.09-.45-.28-.9-.56-1.36-.83-.27-.16-.54-.31-.81-.46-.26-.14-.52-.28-.79-.41-.68-.35-1.36-.68-2.06-.99-.24-.11-.49-.22-.73-.33-.31-.13-.62-.25-.93-.37-.39-.15-.77-.3-1.17-.44-.23-.08-.47-.16-.71-.24-.53-.18-1.07-.34-1.61-.49-.12-.03-.24-.07-.36-.1-2.15-.59-4.38-.99-6.67-1.19-.06,0-.13,0-.19-.01-.63-.05-1.26-.09-1.9-.11-.22,0-.44-.01-.66-.02-.23,0-.45-.02-.68-.02s-.46.01-.69.02c-.33,0-.67.01-1,.03-.3.01-.6.03-.9.05-4.19.27-8.33,1.2-12.19,2.85-.06.02-.11.05-.17.08-13.76,5.83-23.41,19.45-23.41,35.33,0,13.95,7.45,26.16,18.58,32.87Z"/>
  </g>
  <polygon class="cls-1" points="150.69 19.9 153.63 28.81 163.01 28.85 155.44 34.4 158.3 43.34 150.69 37.86 143.07 43.34 145.93 34.4 138.36 28.85 147.75 28.81 150.69 19.9"/>
  <polygon class="cls-1" points="203.84 32.66 206.78 41.57 216.16 41.61 208.6 47.17 211.46 56.1 203.84 50.62 196.23 56.1 199.09 47.17 191.52 41.61 200.9 41.57 203.84 32.66"/>
  <polygon class="cls-1" points="245.36 68.25 248.3 77.16 257.68 77.21 250.12 82.76 252.98 91.69 245.36 86.21 237.75 91.69 240.6 82.76 233.04 77.21 242.42 77.16 245.36 68.25"/>
  <polygon class="cls-1" points="97.53 32.66 100.47 41.57 109.85 41.61 102.29 47.17 105.14 56.1 97.53 50.62 89.91 56.1 92.77 47.17 85.21 41.61 94.59 41.57 97.53 32.66"/>
  <polygon class="cls-1" points="56.01 68.25 58.95 77.16 68.33 77.21 60.77 82.76 63.63 91.69 56.01 86.21 48.4 91.69 51.25 82.76 43.69 77.21 53.07 77.16 56.01 68.25"/>
  <polygon class="cls-1" points="266.22 118.76 269.16 127.67 278.54 127.71 270.98 133.26 273.84 142.2 266.22 136.72 258.61 142.2 261.46 133.26 253.9 127.71 263.28 127.67 266.22 118.76"/>
  <polygon class="cls-1" points="35.17 118.76 38.11 127.67 47.49 127.71 39.93 133.26 42.78 142.2 35.17 136.72 27.55 142.2 30.41 133.26 22.85 127.71 32.23 127.67 35.17 118.76"/>
  <polygon class="cls-1" points="261.91 173.21 264.85 182.11 274.23 182.16 266.67 187.71 269.52 196.64 261.91 191.16 254.29 196.64 257.15 187.71 249.59 182.16 258.97 182.11 261.91 173.21"/>
  <polygon class="cls-1" points="39.4 173.21 42.35 182.11 51.73 182.16 44.16 187.71 47.02 196.64 39.4 191.16 31.79 196.64 34.65 187.71 27.08 182.16 36.46 182.11 39.4 173.21"/>
</svg>